#!OML:ASF X:\für Bonn\!DataBase\2005_08_10_Bjorn_Final\c3d\bjorn.ASF
:FULLY-SPECIFIED
:DEGREES
49
root 0.175815 19.2535 4.04733 -187.418 -28.4124 180.906
lowerback 9.41796 1.67488 -4.83881
upperback 16.0151 -0.315763 -0.770277
thorax 12.1073 -1.69883 1.61508
lowerneck -12.409 -4.06526 -2.51062
upperneck 8.21604 -5.02782 -0.181283
head 4.53811 -2.56809 -0.0289991
rclavicle -1.90833e-014 6.36111e-015
rhumerus -35.7318 -20.0462 -80.9161
rradius 17.8786
rwrist 26.2321
rhand -4.55626 12.5781
rfingers 7.12502
rthumb 21.2197 -16.2805
lclavicle -1.90833e-014 6.36111e-015
lhumerus -3.06461 -22.7792 66.6566
lradius 75.8742
lwrist -18.1123
lhand -37.5643 -21.6354
lfingers 7.12502
lthumb -10.619 8.07631
rfemur -32.6857 -2.75049 16.4075
rtibia 80.2252
rfoot -9.25212 -1.62815
rtoes -18.551
lfemur -4.05282 0.579736 -19.7437
ltibia 25.452
lfoot -3.72954 -22.1817
ltoes 14.3081
50
root 0.206841 19.2723 4.06689 -187.965 -29.3055 181.183
lowerback 10.1197 1.60649 -5.12776
upperback 16.2908 -0.559452 -0.743204
thorax 12.0609 -1.90122 1.79738
lowerneck -12.5719 -4.16527 -2.47479
upperneck 8.08484 -5.20181 0.228237
head 4.5358 -2.6241 0.0762604
rclavicle -1.11319e-014 -3.26007e-014
rhumerus -35.7212 -19.484 -81.2319
rradius 17.87
rwrist 26.2035
rhand -4.48731 12.7972
rfingers 7.12502
rthumb 21.2859 -16.0539
lclavicle -1.11319e-014 -3.26007e-014
lhumerus -0.586975 -21.514 66.3389
lradius 77.1644
lwrist -17.8904
lhand -38.0863 -21.6749
lfingers 7.12502
lthumb -11.1225 8.01033
rfemur -34.4674 -2.77768 16.3426
rtibia 83.1411
rfoot -9.11845 -0.264338
rtoes -18.3909
lfemur -3.42273 0.261086 -19.4932
ltibia 24.7365
lfoot -2.95735 -22.5454
ltoes 14.7102
51
root 0.240195 19.2941 4.08649 -188.499 -30.2276 181.459
lowerback 10.8829 1.50969 -5.46585
upperback 16.5279 -0.845228 -0.73279
thorax 11.9432 -2.12528 1.99606
lowerneck -12.7639 -4.23145 -2.34653
upperneck 8.04755 -5.34031 0.576904
head 4.56339 -2.66394 0.148895
rclavicle -3.53837e-014 9.54166e-015
rhumerus -35.7496 -18.7133 -81.6468
rradius 17.9001
rwrist 26.0704
rhand -4.4317 12.9761
rfingers 7.12502
rthumb 21.3394 -15.869
lclavicle -3.53837e-014 9.54166e-015
lhumerus 1.93871 -20.1763 66.1222
lradius 78.3417
lwrist -17.6782
lhand -38.8159 -22.0481
lfingers 7.12502
lthumb -11.8261 7.59798
rfemur -36.311 -2.83815 16.2502
rtibia 86.0077
rfoot -8.85782 1.03551
rtoes -18.2647
lfemur -2.81692 -0.159849 -19.2667
ltibia 24.0224
lfoot -2.20213 -22.8498
ltoes 15.106
52
root 0.276249 19.3144 4.10715 -189.062 -31.173 181.808
lowerback 11.7054 1.37446 -5.78851
upperback 16.7404 -1.19041 -0.703097
thorax 11.7753 -2.37645 2.2161
lowerneck -12.9421 -4.26828 -2.22009
upperneck 7.9844 -5.43826 0.895803
head 4.57974 -2.68632 0.216334
rclavicle 1.43125e-014 6.99722e-014
rhumerus -35.7974 -17.8517 -82.0341
rradius 17.9201
rwrist 25.974
rhand -4.40601 13.1911
rfingers 7.12502
rthumb 21.364 -15.6512
lclavicle 1.43125e-014 6.99722e-014
lhumerus 4.56746 -18.7422 66.0486
lradius 79.4034
lwrist -17.3388
lhand -39.5609 -22.708
lfingers 7.12502
lthumb -12.5445 6.89543
rfemur -38.1935 -2.96043 16.1919
rtibia 88.8176
rfoot -8.41642 2.31875
rtoes -17.7399
lfemur -2.25656 -0.64481 -18.991
ltibia 23.3361
lfoot -1.45575 -23.1102
ltoes 15.5282
53
root 0.313488 19.3318 4.12778 -189.657 -32.1435 182.188
lowerback 12.5646 1.22872 -6.07689
upperback 16.9673 -1.56161 -0.683267
thorax 11.6154 -2.63967 2.41314
lowerneck -13.2953 -4.30257 -2.13274
upperneck 8.06611 -5.53066 1.26561
head 4.67225 -2.70255 0.300319
rclavicle 2.46493e-014 -1.90833e-014
rhumerus -35.8314 -16.9602 -82.4675
rradius 17.9821
rwrist 25.8745
rhand -4.35177 13.368
rfingers 7.12502
rthumb 21.4161 -15.4683
lclavicle 2.46493e-014 -1.90833e-014
lhumerus 7.35569 -17.319 66.093
lradius 80.4372
lwrist -16.7885
lhand -40.3202 -23.4662
lfingers 7.12502
lthumb -13.2764 6.09099
rfemur -40.0919 -3.13899 16.1161
rtibia 91.5768
rfoot -7.86535 3.59019
rtoes -17.126
lfemur -1.71039 -1.20459 -18.7183
ltibia 22.6846
lfoot -0.782924 -23.3239
ltoes 15.8086
54
root 0.352922 19.346 4.14898 -190.27 -33.1514 182.632
lowerback 13.4582 1.07631 -6.29645
upperback 17.1565 -1.93522 -0.646765
thorax 11.3971 -2.89139 2.60216
lowerneck -13.5106 -4.33902 -1.9774
upperneck 8.06653 -5.63553 1.56614
head 4.71372 -2.72814 0.355228
rclavicle -4.29375e-014 2.46493e-014
rhumerus -35.963 -16.0673 -82.8459
rradius 18.0758
rwrist 25.7555
rhand -4.2938 13.5992
rfingers 7.12502
rthumb 21.4718 -15.2308
lclavicle -4.29375e-014 2.46493e-014
lhumerus 10.2541 -16.0109 66.2884
lradius 81.3631
lwrist -16.1376
lhand -40.9946 -24.3338
lfingers 7.12502
lthumb -13.9264 5.1798
rfemur -42.0503 -3.39504 16.0934
rtibia 94.2783
rfoot -7.34026 4.76862
rtoes -16.9954
lfemur -1.24374 -1.7531 -18.3953
ltibia 22.1047
lfoot -0.0871882 -23.6019
ltoes 16.0638
55
root 0.39174 19.3602 4.16845 -190.914 -34.1468 183.092
lowerback 14.3511 0.940715 -6.48562
upperback 17.3627 -2.29281 -0.603842
thorax 11.2069 -3.13615 2.78673
lowerneck -13.705 -4.38536 -1.84284
upperneck 8.02572 -5.75412 1.88677
head 4.74074 -2.7604 0.419355
rclavicle -1.66979e-014 3.26007e-014
rhumerus -36.0749 -15.0762 -83.2594
rradius 18.1757
rwrist 25.5381
rhand -4.30312 13.8154
rfingers 7.12502
rthumb 21.4629 -15.0156
lclavicle -1.66979e-014 3.26007e-014
lhumerus 13.2544 -14.7563 66.6846
lradius 82.2834
lwrist -15.5849
lhand -41.4963 -25.0065
lfingers 7.12502
lthumb -14.4099 4.47332
rfemur -44.0023 -3.67708 16.0719
rtibia 96.9071
rfoot -6.87219 5.87534
rtoes -17.0096
lfemur -0.773354 -2.35844 -18.0864
ltibia 21.5525
lfoot 0.606438 -23.7963
ltoes 16.4773
